<?xml version="1.0" encoding="UTF-8"?>
<svg xmlns="http://www.w3.org/2000/svg" xmlns:xlink="http://www.w3.org/1999/xlink" width="24px" height="24px" viewBox="0 0 24 24" version="1.1">
<g id="surface1">
<path style=" stroke:none;fill-rule:evenodd;fill:rgb(0%,0%,0%);fill-opacity:1;" d="M 24 0 L 20.570312 0 L 20.570312 3.429688 L 17.144531 3.429688 L 17.144531 6.855469 L 13.714844 6.855469 L 13.714844 10.285156 L 10.285156 10.285156 L 10.285156 13.714844 L 6.855469 13.714844 L 6.855469 10.285156 L 3.429688 10.285156 L 3.429688 6.855469 L 0 6.855469 L 0 17.144531 L 3.429688 17.144531 L 3.429688 20.570312 L 6.855469 20.570312 L 6.855469 24 L 10.285156 24 L 10.285156 20.570312 L 13.714844 20.570312 L 13.714844 17.144531 L 17.144531 17.144531 L 17.144531 13.714844 L 20.570312 13.714844 L 20.570312 10.285156 L 24 10.285156 Z M 24 0 "/>
</g>
</svg>
