<?xml version="1.0" encoding="UTF-8"?>
<svg xmlns="http://www.w3.org/2000/svg" xmlns:xlink="http://www.w3.org/1999/xlink" width="24px" height="24px" viewBox="0 0 24 24" version="1.1">
<g id="surface1">
<path style=" stroke:none;fill-rule:evenodd;fill:rgb(0%,0%,0%);fill-opacity:1;" d="M 0 0 L 6 0 L 6 3.429688 L 9 3.429688 L 9 6.855469 L 15 6.855469 L 15 3.429688 L 18 3.429688 L 18 0 L 24 0 L 24 3.429688 L 21 3.429688 L 21 6.855469 L 18 6.855469 L 18 10.285156 L 15 10.285156 L 15 13.714844 L 18 13.714844 L 18 17.144531 L 21 17.144531 L 21 20.570312 L 24 20.570312 L 24 24 L 18 24 L 18 20.570312 L 15 20.570312 L 15 17.144531 L 9 17.144531 L 9 20.570312 L 6 20.570312 L 6 24 L 0 24 L 0 20.570312 L 3 20.570312 L 3 17.144531 L 6 17.144531 L 6 13.714844 L 9 13.714844 L 9 10.285156 L 6 10.285156 L 6 6.855469 L 3 6.855469 L 3 3.429688 L 0 3.429688 Z M 0 0 "/>
</g>
</svg>
